<svg width="1170.000000" height="43.000000" viewBox="0 0 1170 43" fill="none" xmlns="http://www.w3.org/2000/svg" xmlns:xlink="http://www.w3.org/1999/xlink">
	<desc>
			Created with Pixso.
	</desc>
	<defs/>
	<rect id="Rectangle 4" rx="21.500000" width="160.000000" height="43.000000" fill="#894189" fill-opacity="1.000000"/>
	<path id="Rectangle 5" d="M21.5 0L43.9207 0C49.9001 0 53.7661 6.32059 51.0427 11.6438L37.2288 38.6438C35.8608 41.3177 33.1104 43 30.1067 43L21.5 43C9.62598 43 0 33.3741 0 21.5C0 9.62589 9.62598 0 21.5 0Z" fill="#FFFFFF" fill-opacity="0.070000" fill-rule="nonzero"/>
	<path id="Life" d="M36.618 31.2857L45.4071 31.2857L45.4071 29.3961L38.8153 29.3961L38.8153 16.7398L36.618 16.7398L36.618 31.2857ZM47.7326 31.2857L49.8566 31.2857L49.8566 20.3775L47.7326 20.3775L47.7326 31.2857ZM48.8068 18.6929C49.5392 18.6929 50.1496 18.1265 50.1496 17.4283C50.1496 16.7349 49.5392 16.1588 48.8068 16.1588C48.0695 16.1588 47.464 16.7349 47.464 17.4283C47.464 18.1265 48.0695 18.6929 48.8068 18.6929ZM57.9066 20.3775L55.5531 20.3775L55.5531 19.3961C55.5531 18.4293 55.9535 17.9068 56.9886 17.9068C57.4281 17.9068 57.7406 18.0045 57.9408 18.0679L58.4388 16.3492C58.141 16.2369 57.5209 16.0562 56.6615 16.0562C54.9379 16.0562 53.4242 17.067 53.4242 19.1129L53.4242 20.3775L51.7396 20.3775L51.7396 22.0816L53.4242 22.0816L53.4242 31.2857L55.5531 31.2857L55.5531 22.0816L57.9066 22.0816L57.9066 20.3775ZM64.3595 31.5054C66.7423 31.5054 68.422 30.3336 68.9054 28.5562L66.8985 28.1949C66.5128 29.2252 65.5899 29.7525 64.3839 29.7525C62.5626 29.7525 61.3419 28.5709 61.2833 26.4713L69.0421 26.4713L69.0421 25.7193C69.0421 21.774 66.6837 20.2359 64.213 20.2359C61.171 20.2359 59.169 22.5504 59.169 25.9C59.169 29.2886 61.1417 31.5054 64.3595 31.5054ZM61.2931 24.8795C61.3761 23.3316 62.4991 21.9888 64.2276 21.9888C65.8731 21.9888 66.9522 23.2095 66.962 24.8795L61.2931 24.8795Z" fill="#FFFFFF" fill-opacity="1.000000" fill-rule="evenodd"/>
	<path id="Vector" d="M88.5859 29.098L88.5776 29.0953L88.552 29.0846C88.4019 29.0211 88.2529 28.9561 88.1052 28.8893C86.3293 28.079 84.6697 27.1271 83.1538 26.0495C80.4692 24.1262 77.625 21.272 77.625 17.7568C77.625 15.1338 80.4998 13.0536 83.9692 13.0536C84.9338 13.05 85.887 13.2134 86.7581 13.5317C87.6289 13.8499 88.3953 14.3149 89 14.8919C89.6047 14.3148 90.3713 13.8497 91.2424 13.5315C92.1138 13.2132 93.0671 13.0499 94.0317 13.0536C97.5002 13.0536 100.375 15.1338 100.375 17.7568C100.375 21.2729 97.5308 24.127 94.8462 26.0486C93.3303 27.1263 91.6707 28.0782 89.8948 28.8884C89.7471 28.9554 89.5981 29.0208 89.448 29.0846L89.4224 29.0953L89.4141 29.0989L89.4106 29.0998C89.2842 29.1513 89.1431 29.1782 89 29.1782C88.8569 29.1782 88.7158 29.1513 88.5894 29.0998L88.5859 29.098Z" fill="#FFFFFF" fill-opacity="1.000000" fill-rule="nonzero"/>
	<path id="offline_bolt" d="M98.8933 27.6174L102.083 22.8311L99.8833 22.8311L99.8833 19.734L96.5833 24.5203L98.8933 24.5203L98.8933 27.6174ZM99.3333 29.3066C98.3188 29.3066 97.3655 29.1588 96.4734 28.8632C95.5811 28.5676 94.8049 28.1664 94.145 27.6596C93.4851 27.1528 92.9624 26.5569 92.5774 25.8718C92.1924 25.1867 92 24.4547 92 23.6757C92 22.8967 92.1924 22.1647 92.5774 21.4796C92.9624 20.7945 93.4851 20.1986 94.145 19.6918C94.8049 19.185 95.5811 18.7838 96.4734 18.4882C97.3655 18.1926 98.3188 18.0447 99.3333 18.0447C100.348 18.0447 101.301 18.1926 102.193 18.4882C103.085 18.7838 103.862 19.185 104.522 19.6918C105.182 20.1986 105.704 20.7945 106.089 21.4796C106.474 22.1647 106.667 22.8967 106.667 23.6757C106.667 24.4547 106.474 25.1867 106.089 25.8718C105.704 26.5569 105.182 27.1528 104.522 27.6596C103.862 28.1664 103.085 28.5676 102.193 28.8632C101.301 29.1588 100.348 29.3066 99.3333 29.3066Z" fill="#894189" fill-opacity="1.000000" fill-rule="nonzero"/>
	<path id="offline_bolt" d="M99.2666 27.259L102.167 22.9078L100.167 22.9078L100.167 20.0923L97.1667 24.4435L99.2666 24.4435L99.2666 27.259ZM99.6667 28.7947C98.7444 28.7947 97.8777 28.6604 97.0667 28.3916C96.2556 28.1229 95.55 27.7581 94.95 27.2974C94.3501 26.8367 93.875 26.2949 93.5249 25.6721C93.175 25.0493 93 24.3838 93 23.6757C93 22.9676 93.175 22.3021 93.5249 21.6793C93.875 21.0564 94.3501 20.5147 94.95 20.054C95.55 19.5933 96.2556 19.2285 97.0667 18.9598C97.8777 18.691 98.7444 18.5566 99.6667 18.5566C100.589 18.5566 101.456 18.691 102.267 18.9598C103.078 19.2285 103.783 19.5933 104.383 20.054C104.983 20.5147 105.458 21.0564 105.808 21.6793C106.158 22.3021 106.333 22.9676 106.333 23.6757C106.333 24.3838 106.158 25.0493 105.808 25.6721C105.458 26.2949 104.983 26.8367 104.383 27.2974C103.783 27.7581 103.078 28.1229 102.267 28.3916C101.456 28.6604 100.589 28.7947 99.6667 28.7947Z" fill="#FFFFFF" fill-opacity="1.000000" fill-rule="nonzero"/>
	<path id="1" d="M121.859 16.7398L119.72 16.7398L116.093 19.1129L116.093 21.2125L119.569 18.942L119.657 18.942L119.657 31.2857L121.859 31.2857L121.859 16.7398Z" fill="#FFFFFF" fill-opacity="1.000000" fill-rule="evenodd"/>
	<rect id="Rectangle 4" x="1000.000000" rx="21.500000" width="170.000000" height="43.000000" fill="#360490" fill-opacity="1.000000"/>
	<path id="Score" d="M1042.88 20.563L1044.99 20.563C1044.93 18.2339 1042.87 16.5396 1039.91 16.5396C1037 16.5396 1034.76 18.2095 1034.76 20.7193C1034.76 22.7408 1036.21 23.9273 1038.55 24.5621L1040.27 25.0308C1041.82 25.441 1043.02 25.9537 1043.02 27.2427C1043.02 28.6636 1041.66 29.6011 1039.8 29.6011C1038.11 29.6011 1036.7 28.8492 1036.57 27.2672L1034.37 27.2672C1034.51 29.899 1036.55 31.525 1039.81 31.525C1043.23 31.525 1045.19 29.7281 1045.19 27.2672C1045.19 24.6451 1042.86 23.6295 1041.01 23.1754L1039.59 22.8043C1038.45 22.5162 1036.94 21.9839 1036.95 20.5875C1036.95 19.3521 1038.08 18.439 1039.87 18.439C1041.54 18.439 1042.72 19.2203 1042.88 20.563ZM1052.24 31.5054C1054.82 31.5054 1056.49 29.9576 1056.72 27.8336L1054.65 27.8336C1054.39 29.0152 1053.47 29.7086 1052.25 29.7086C1050.45 29.7086 1049.3 28.2095 1049.3 25.8316C1049.3 23.4927 1050.48 22.023 1052.25 22.023C1053.6 22.023 1054.42 22.8775 1054.65 23.898L1056.72 23.898C1056.49 21.6959 1054.7 20.2359 1052.22 20.2359C1049.14 20.2359 1047.15 22.5504 1047.15 25.8804C1047.15 29.1714 1049.07 31.5054 1052.24 31.5054ZM1063.59 31.5054C1066.67 31.5054 1068.68 29.2545 1068.68 25.8804C1068.68 22.4869 1066.67 20.2359 1063.59 20.2359C1060.52 20.2359 1058.51 22.4869 1058.51 25.8804C1058.51 29.2545 1060.52 31.5054 1063.59 31.5054ZM1063.6 29.7232C1061.59 29.7232 1060.65 27.9703 1060.65 25.8755C1060.65 23.7857 1061.59 22.0084 1063.6 22.0084C1065.6 22.0084 1066.54 23.7857 1066.54 25.8755C1066.54 27.9703 1065.6 29.7232 1063.6 29.7232ZM1071.04 31.2857L1073.17 31.2857L1073.17 24.6255C1073.17 23.1949 1074.27 22.1646 1075.78 22.1646C1076.22 22.1646 1076.71 22.2427 1076.88 22.2964L1076.88 20.2652C1076.67 20.2359 1076.25 20.2115 1075.98 20.2115C1074.7 20.2115 1073.61 20.939 1073.21 22.1109L1073.1 22.1109L1073.1 20.3775L1071.04 20.3775L1071.04 31.2857ZM1083.03 31.5054C1085.42 31.5054 1087.1 30.3336 1087.58 28.5562L1085.57 28.1949C1085.19 29.2252 1084.26 29.7525 1083.06 29.7525C1081.24 29.7525 1080.02 28.5709 1079.96 26.4713L1087.72 26.4713L1087.72 25.7193C1087.72 21.774 1085.36 20.2359 1082.89 20.2359C1079.84 20.2359 1077.84 22.5504 1077.84 25.9C1077.84 29.2886 1079.82 31.5054 1083.03 31.5054ZM1079.97 24.8795C1080.05 23.3316 1081.17 21.9888 1082.9 21.9888C1084.55 21.9888 1085.63 23.2095 1085.64 24.8795L1079.97 24.8795Z" fill="#FFFFFF" fill-opacity="1.000000" fill-rule="evenodd"/>
	<path id="monetization_on" d="M1106.63 26.8708L1108.48 26.8708L1108.48 25.8548C1109.37 25.7329 1110.13 25.4688 1110.76 25.0624C1111.4 24.656 1111.71 24.0532 1111.71 23.2539C1111.71 22.685 1111.5 22.1635 1111.08 21.6893C1110.65 21.2152 1109.81 20.8021 1108.54 20.4499C1107.48 20.1789 1106.75 19.9419 1106.34 19.7387C1105.94 19.5355 1105.73 19.2578 1105.73 18.9056C1105.73 18.5534 1105.9 18.2757 1106.22 18.0725C1106.55 17.8693 1107.02 17.7677 1107.64 17.7677C1108.2 17.7677 1108.64 17.8727 1108.96 18.0826C1109.28 18.2926 1109.51 18.5534 1109.65 18.8649L1111.34 18.3366C1111.15 17.8625 1110.79 17.4494 1110.27 17.0972C1109.75 16.745 1109.17 16.5485 1108.54 16.5079L1108.54 15.4919L1106.69 15.4919L1106.69 16.5079C1105.8 16.6569 1105.12 16.9549 1104.62 17.4019C1104.13 17.849 1103.88 18.3502 1103.88 18.9056C1103.88 19.5423 1104.12 20.057 1104.61 20.4499C1105.09 20.8427 1105.86 21.1814 1106.9 21.4658C1108.01 21.7774 1108.78 22.0551 1109.21 22.2989C1109.64 22.5428 1109.86 22.8611 1109.86 23.2539C1109.86 23.701 1109.65 24.0294 1109.24 24.2394C1108.82 24.4494 1108.33 24.5544 1107.74 24.5544C1107.16 24.5544 1106.65 24.4155 1106.2 24.1378C1105.75 23.8601 1105.42 23.4436 1105.2 22.8882L1103.46 23.4165C1103.7 24.0667 1104.09 24.5916 1104.61 24.9912C1105.13 25.3909 1105.8 25.6652 1106.63 25.8142L1106.63 26.8708ZM1107.58 29.3091C1106.12 29.3091 1104.74 29.0958 1103.46 28.6691C1102.17 28.2423 1101.05 27.6632 1100.1 26.9318C1099.14 26.2003 1098.39 25.3401 1097.83 24.3512C1097.28 23.3623 1097 22.3057 1097 21.1814C1097 20.057 1097.28 19.0004 1097.83 18.0115C1098.39 17.0226 1099.14 16.1624 1100.1 15.431C1101.05 14.6995 1102.17 14.1204 1103.46 13.6937C1104.74 13.2669 1106.12 13.0536 1107.58 13.0536C1109.05 13.0536 1110.43 13.2669 1111.71 13.6937C1113 14.1204 1114.12 14.6995 1115.07 15.431C1116.03 16.1624 1116.78 17.0226 1117.34 18.0115C1117.89 19.0004 1118.17 20.057 1118.17 21.1814C1118.17 22.3057 1117.89 23.3623 1117.34 24.3512C1116.78 25.3401 1116.03 26.2003 1115.07 26.9318C1114.12 27.6632 1113 28.2423 1111.71 28.6691C1110.43 29.0958 1109.05 29.3091 1107.58 29.3091Z" fill="#FFFFFF" fill-opacity="1.000000" fill-rule="nonzero"/>
	<path id="1" d="M1133.36 16.7398L1131.22 16.7398L1127.6 19.1129L1127.6 21.2125L1131.07 18.942L1131.16 18.942L1131.16 31.2857L1133.36 31.2857L1133.36 16.7398Z" fill="#FFFFFF" fill-opacity="1.000000" fill-rule="evenodd"/>
</svg>
