<svg width="160.000000" height="43.000000" viewBox="0 0 160 43" fill="none" xmlns="http://www.w3.org/2000/svg" xmlns:xlink="http://www.w3.org/1999/xlink">
	<desc>
			Created with Pixso.
	</desc>
	<defs/>
	<rect id="Rectangle 4" rx="21.500000" width="160.000000" height="43.000000" fill="#894189" fill-opacity="1.000000"/>
	<path id="Rectangle 5" d="M21.5 0L43.9207 0C49.9001 0 53.7661 6.32059 51.0427 11.6438L37.2288 38.6438C35.8608 41.3177 33.1104 43 30.1067 43L21.5 43C9.62598 43 0 33.3741 0 21.5C0 9.62589 9.62598 0 21.5 0Z" fill="#FFFFFF" fill-opacity="0.070000" fill-rule="nonzero"/>
	<path id="Life" d="M36.618 31.2857L45.4071 31.2857L45.4071 29.3961L38.8153 29.3961L38.8153 16.7398L36.618 16.7398L36.618 31.2857ZM47.7326 31.2857L49.8566 31.2857L49.8566 20.3775L47.7326 20.3775L47.7326 31.2857ZM48.8068 18.6929C49.5392 18.6929 50.1496 18.1265 50.1496 17.4283C50.1496 16.7349 49.5392 16.1588 48.8068 16.1588C48.0695 16.1588 47.464 16.7349 47.464 17.4283C47.464 18.1265 48.0695 18.6929 48.8068 18.6929ZM57.9066 20.3775L55.5531 20.3775L55.5531 19.3961C55.5531 18.4293 55.9535 17.9068 56.9886 17.9068C57.4281 17.9068 57.7406 18.0045 57.9408 18.0679L58.4388 16.3492C58.141 16.2369 57.5209 16.0562 56.6615 16.0562C54.9379 16.0562 53.4242 17.067 53.4242 19.1129L53.4242 20.3775L51.7396 20.3775L51.7396 22.0816L53.4242 22.0816L53.4242 31.2857L55.5531 31.2857L55.5531 22.0816L57.9066 22.0816L57.9066 20.3775ZM64.3595 31.5054C66.7423 31.5054 68.422 30.3336 68.9054 28.5562L66.8985 28.1949C66.5128 29.2252 65.5899 29.7525 64.3839 29.7525C62.5626 29.7525 61.3419 28.5709 61.2833 26.4713L69.0421 26.4713L69.0421 25.7193C69.0421 21.774 66.6837 20.2359 64.213 20.2359C61.171 20.2359 59.169 22.5504 59.169 25.9C59.169 29.2886 61.1417 31.5054 64.3595 31.5054ZM61.2931 24.8795C61.3761 23.3316 62.4991 21.9888 64.2276 21.9888C65.8731 21.9888 66.9522 23.2095 66.962 24.8795L61.2931 24.8795Z" fill="#FFFFFF" fill-opacity="1.000000" fill-rule="evenodd"/>
	<path id="Vector" d="M88.5859 29.098L88.5776 29.0953L88.552 29.0846C88.4019 29.0211 88.2529 28.9561 88.1052 28.8893C86.3293 28.079 84.6697 27.1271 83.1538 26.0495C80.4692 24.1262 77.625 21.272 77.625 17.7568C77.625 15.1338 80.4998 13.0536 83.9692 13.0536C84.9338 13.05 85.887 13.2134 86.7581 13.5317C87.6289 13.8499 88.3953 14.3149 89 14.8919C89.6047 14.3148 90.3713 13.8497 91.2424 13.5315C92.1138 13.2132 93.0671 13.0499 94.0317 13.0536C97.5002 13.0536 100.375 15.1338 100.375 17.7568C100.375 21.2729 97.5308 24.127 94.8462 26.0486C93.3303 27.1263 91.6707 28.0782 89.8948 28.8884C89.7471 28.9554 89.5981 29.0208 89.448 29.0846L89.4224 29.0953L89.4141 29.0989L89.4106 29.0998C89.2842 29.1513 89.1431 29.1782 89 29.1782C88.8569 29.1782 88.7158 29.1513 88.5894 29.0998L88.5859 29.098Z" fill="#FFFFFF" fill-opacity="1.000000" fill-rule="nonzero"/>
	<path id="offline_bolt" d="M98.8933 27.6174L102.083 22.8311L99.8833 22.8311L99.8833 19.734L96.5833 24.5203L98.8933 24.5203L98.8933 27.6174ZM99.3333 29.3066C98.3188 29.3066 97.3655 29.1588 96.4734 28.8632C95.5811 28.5676 94.8049 28.1664 94.145 27.6596C93.4851 27.1528 92.9624 26.5569 92.5774 25.8718C92.1924 25.1867 92 24.4547 92 23.6757C92 22.8967 92.1924 22.1647 92.5774 21.4796C92.9624 20.7945 93.4851 20.1986 94.145 19.6918C94.8049 19.185 95.5811 18.7838 96.4734 18.4882C97.3655 18.1926 98.3188 18.0447 99.3333 18.0447C100.348 18.0447 101.301 18.1926 102.193 18.4882C103.085 18.7838 103.862 19.185 104.522 19.6918C105.182 20.1986 105.704 20.7945 106.089 21.4796C106.474 22.1647 106.667 22.8967 106.667 23.6757C106.667 24.4547 106.474 25.1867 106.089 25.8718C105.704 26.5569 105.182 27.1528 104.522 27.6596C103.862 28.1664 103.085 28.5676 102.193 28.8632C101.301 29.1588 100.348 29.3066 99.3333 29.3066Z" fill="#894189" fill-opacity="1.000000" fill-rule="nonzero"/>
	<path id="offline_bolt" d="M99.2666 27.259L102.167 22.9078L100.167 22.9078L100.167 20.0923L97.1667 24.4435L99.2666 24.4435L99.2666 27.259ZM99.6667 28.7947C98.7444 28.7947 97.8777 28.6604 97.0667 28.3916C96.2556 28.1229 95.55 27.7581 94.95 27.2974C94.3501 26.8367 93.875 26.2949 93.5249 25.6721C93.175 25.0493 93 24.3838 93 23.6757C93 22.9676 93.175 22.3021 93.5249 21.6793C93.875 21.0564 94.3501 20.5147 94.95 20.054C95.55 19.5933 96.2556 19.2285 97.0667 18.9598C97.8777 18.691 98.7444 18.5566 99.6667 18.5566C100.589 18.5566 101.456 18.691 102.267 18.9598C103.078 19.2285 103.783 19.5933 104.383 20.054C104.983 20.5147 105.458 21.0564 105.808 21.6793C106.158 22.3021 106.333 22.9676 106.333 23.6757C106.333 24.3838 106.158 25.0493 105.808 25.6721C105.458 26.2949 104.983 26.8367 104.383 27.2974C103.783 27.7581 103.078 28.1229 102.267 28.3916C101.456 28.6604 100.589 28.7947 99.6667 28.7947Z" fill="#FFFFFF" fill-opacity="1.000000" fill-rule="nonzero"/>
	<path id="1" d="M121.859 16.7398L119.72 16.7398L116.093 19.1129L116.093 21.2125L119.569 18.942L119.657 18.942L119.657 31.2857L121.859 31.2857L121.859 16.7398Z" fill="#FFFFFF" fill-opacity="1.000000" fill-rule="evenodd"/>
</svg>
