<svg width="170.000000" height="43.000000" viewBox="0 0 170 43" fill="none" xmlns="http://www.w3.org/2000/svg" xmlns:xlink="http://www.w3.org/1999/xlink">
	<desc>
			Created with Pixso.
	</desc>
	<defs/>
	<rect id="Rectangle 4" rx="21.500000" width="170.000000" height="43.000000" fill="#360490" fill-opacity="1.000000"/>
	<path id="Score" d="M42.8785 20.563L44.9928 20.563C44.9293 18.2339 42.8737 16.5396 39.9147 16.5396C36.9996 16.5396 34.7584 18.2095 34.7584 20.7193C34.7584 22.7408 36.2086 23.9273 38.5475 24.5621L40.2662 25.0308C41.819 25.441 43.0201 25.9537 43.0201 27.2427C43.0201 28.6636 41.6627 29.6011 39.7975 29.6011C38.108 29.6011 36.7018 28.8492 36.57 27.2672L34.3678 27.2672C34.5143 29.899 36.5504 31.525 39.8121 31.525C43.2252 31.525 45.193 29.7281 45.193 27.2672C45.193 24.6451 42.859 23.6295 41.0084 23.1754L39.5924 22.8043C38.4547 22.5162 36.941 21.9839 36.9459 20.5875C36.9459 19.3521 38.0787 18.439 39.8659 18.439C41.5358 18.439 42.7223 19.2203 42.8785 20.563ZM52.2371 31.5054C54.8153 31.5054 56.4852 29.9576 56.7195 27.8336L54.6541 27.8336C54.3856 29.0152 53.4676 29.7086 52.2518 29.7086C50.4549 29.7086 49.2977 28.2095 49.2977 25.8316C49.2977 23.4927 50.4793 22.023 52.2518 22.023C53.6043 22.023 54.4246 22.8775 54.6541 23.898L56.7195 23.898C56.4949 21.6959 54.6981 20.2359 52.2176 20.2359C49.1414 20.2359 47.1541 22.5504 47.1541 25.8804C47.1541 29.1714 49.0731 31.5054 52.2371 31.5054ZM63.5937 31.5054C66.6698 31.5054 68.6815 29.2545 68.6815 25.8804C68.6815 22.4869 66.6698 20.2359 63.5937 20.2359C60.5224 20.2359 58.5107 22.4869 58.5107 25.8804C58.5107 29.2545 60.5224 31.5054 63.5937 31.5054ZM63.6034 29.7232C61.5917 29.7232 60.6542 27.9703 60.6542 25.8755C60.6542 23.7857 61.5917 22.0084 63.6034 22.0084C65.6005 22.0084 66.538 23.7857 66.538 25.8755C66.538 27.9703 65.6005 29.7232 63.6034 29.7232ZM71.0444 31.2857L73.1684 31.2857L73.1684 24.6255C73.1684 23.1949 74.2719 22.1646 75.7758 22.1646C76.2153 22.1646 76.7133 22.2427 76.8842 22.2964L76.8842 20.2652C76.6694 20.2359 76.2543 20.2115 75.9809 20.2115C74.7016 20.2115 73.6079 20.939 73.2124 22.1109L73.1001 22.1109L73.1001 20.3775L71.0444 20.3775L71.0444 31.2857ZM83.0335 31.5054C85.4163 31.5054 87.096 30.3336 87.5794 28.5562L85.5725 28.1949C85.1868 29.2252 84.2639 29.7525 83.0579 29.7525C81.2366 29.7525 80.0159 28.5709 79.9573 26.4713L87.7161 26.4713L87.7161 25.7193C87.7161 21.774 85.3577 20.2359 82.887 20.2359C79.845 20.2359 77.843 22.5504 77.843 25.9C77.843 29.2886 79.8157 31.5054 83.0335 31.5054ZM79.9671 24.8795C80.0501 23.3316 81.1731 21.9888 82.9016 21.9888C84.5471 21.9888 85.6262 23.2095 85.636 24.8795L79.9671 24.8795Z" fill="#FFFFFF" fill-opacity="1.000000" fill-rule="evenodd"/>
	<path id="monetization_on" d="M106.632 26.8708L108.485 26.8708L108.485 25.8548C109.367 25.7329 110.125 25.4688 110.76 25.0624C111.396 24.656 111.713 24.0532 111.713 23.2539C111.713 22.685 111.501 22.1635 111.078 21.6893C110.655 21.2152 109.808 20.8021 108.538 20.4499C107.479 20.1789 106.747 19.9419 106.341 19.7387C105.936 19.5355 105.733 19.2578 105.733 18.9056C105.733 18.5534 105.896 18.2757 106.222 18.0725C106.549 17.8693 107.021 17.7677 107.638 17.7677C108.202 17.7677 108.644 17.8727 108.961 18.0826C109.279 18.2926 109.508 18.5534 109.649 18.8649L111.343 18.3366C111.149 17.8625 110.791 17.4494 110.271 17.0972C109.75 16.745 109.173 16.5485 108.538 16.5079L108.538 15.4919L106.685 15.4919L106.685 16.5079C105.803 16.6569 105.115 16.9549 104.621 17.4019C104.127 17.849 103.88 18.3502 103.88 18.9056C103.88 19.5423 104.123 20.057 104.608 20.4499C105.093 20.8427 105.856 21.1814 106.897 21.4658C108.008 21.7774 108.78 22.0551 109.212 22.2989C109.645 22.5428 109.861 22.8611 109.861 23.2539C109.861 23.701 109.654 24.0294 109.239 24.2394C108.824 24.4494 108.326 24.5544 107.744 24.5544C107.162 24.5544 106.646 24.4155 106.196 24.1378C105.746 23.8601 105.415 23.4436 105.203 22.8882L103.457 23.4165C103.704 24.0667 104.088 24.5916 104.608 24.9912C105.128 25.3909 105.803 25.6652 106.632 25.8142L106.632 26.8708ZM107.585 29.3091C106.121 29.3091 104.745 29.0958 103.457 28.6691C102.169 28.2423 101.049 27.6632 100.096 26.9318C99.1436 26.2003 98.3892 25.3401 97.8335 24.3512C97.2778 23.3623 97 22.3057 97 21.1814C97 20.057 97.2778 19.0004 97.8335 18.0115C98.3892 17.0226 99.1436 16.1624 100.096 15.431C101.049 14.6995 102.169 14.1204 103.457 13.6937C104.745 13.2669 106.121 13.0536 107.585 13.0536C109.049 13.0536 110.425 13.2669 111.713 13.6937C113.001 14.1204 114.121 14.6995 115.074 15.431C116.027 16.1624 116.781 17.0226 117.336 18.0115C117.892 19.0004 118.17 20.057 118.17 21.1814C118.17 22.3057 117.892 23.3623 117.336 24.3512C116.781 25.3401 116.027 26.2003 115.074 26.9318C114.121 27.6632 113.001 28.2423 111.713 28.6691C110.425 29.0958 109.049 29.3091 107.585 29.3091Z" fill="#FFFFFF" fill-opacity="1.000000" fill-rule="nonzero"/>
	<path id="1" d="M133.362 16.7398L131.224 16.7398L127.596 19.1129L127.596 21.2125L131.072 18.942L131.16 18.942L131.16 31.2857L133.362 31.2857L133.362 16.7398Z" fill="#FFFFFF" fill-opacity="1.000000" fill-rule="evenodd"/>
</svg>
